<svg width="24" height="28" viewBox="0 0 24 28" fill="none" xmlns="http://www.w3.org/2000/svg">
    <path
        d="M17.1599 16.6855L23.4016 23.9219C23.711 24.2806 23.9104 24.72 23.9761 25.1879C24.0419 25.6559 23.9712 26.1327 23.7724 26.5619C23.5737 26.9911 23.2553 27.3547 22.8549 27.6096C22.4545 27.8645 21.9889 28 21.5134 28H2.48664C2.0111 28 1.54554 27.8645 1.14514 27.6096C0.744745 27.3547 0.426304 26.9911 0.22757 26.5619C0.0288354 26.1327 -0.0418584 25.6559 0.0238688 25.1879C0.0895961 24.72 0.288988 24.2806 0.598407 23.9219L6.84088 16.6863C7.58396 17.1357 8.38361 17.4855 9.21904 17.7265L2.48664 25.5294H21.5134L14.781 17.7265C15.6166 17.4849 16.4165 17.1349 17.1599 16.6855V16.6855ZM12 0C16.578 0 20.289 3.68696 20.289 8.23531C20.289 12.7837 16.578 16.4706 12 16.4706C7.42196 16.4706 3.71096 12.7836 3.71096 8.23531C3.71096 3.687 7.42196 0 12 0ZM12 2.47059C10.4611 2.47059 8.98527 3.07794 7.89712 4.15903C6.80897 5.24012 6.19766 6.7064 6.19766 8.23529C6.19766 9.76419 6.80897 11.2305 7.89712 12.3116C8.98527 13.3926 10.4611 14 12 14C13.5389 14 15.0147 13.3926 16.1029 12.3116C17.191 11.2305 17.8023 9.76419 17.8023 8.23529C17.8023 6.7064 17.191 5.24012 16.1029 4.15903C15.0147 3.07794 13.5389 2.47059 12 2.47059Z"
        fill="black" />
</svg>