<svg width="44" height="44" viewBox="0 0 44 44" fill="none" xmlns="http://www.w3.org/2000/svg">
    <path
        d="M20.8083 11.6884L21.0934 11.9772C21.3501 12.2338 21.6526 12.529 22 12.8636L22.3951 12.4804C22.7067 12.1779 22.9726 11.9139 23.1926 11.6884C23.9667 10.8905 24.8932 10.2561 25.9171 9.82293C26.941 9.38972 28.0414 9.1665 29.1532 9.1665C30.265 9.1665 31.3654 9.38972 32.3893 9.82293C33.4132 10.2561 34.3397 10.8905 35.1138 11.6884C38.3753 15.0196 38.4065 20.4023 35.2055 23.771L22 36.6667L8.7945 23.7719C5.59442 20.4023 5.62467 15.0196 8.88617 11.6884C9.66032 10.8905 10.5868 10.2561 11.6107 9.82293C12.6346 9.38972 13.735 9.1665 14.8468 9.1665C15.9586 9.1665 17.059 9.38972 18.0829 9.82293C19.1068 10.2561 20.0333 10.8905 20.8074 11.6884H20.8083Z"
        fill="#F55555" />
</svg>