<svg width="44" height="44" viewBox="0 0 44 44" fill="none" xmlns="http://www.w3.org/2000/svg">
    <path
        d="M23.1916 11.6884L22.9066 11.9771C22.6499 12.2338 22.3474 12.529 22 12.8636L21.6049 12.4804C21.2932 12.1779 21.0274 11.9139 20.8074 11.6884C20.0332 10.8905 19.1067 10.2561 18.0828 9.8229C17.059 9.38969 15.9585 9.16647 14.8468 9.16647C13.735 9.16647 12.6345 9.38969 11.6107 9.8229C10.5868 10.2561 9.66028 10.8905 8.88612 11.6884C5.62462 15.0196 5.59347 20.4022 8.79447 23.771L22 36.6666L35.2055 23.7719C38.4056 20.4022 38.3753 15.0196 35.1138 11.6884C34.3397 10.8905 33.4132 10.2561 32.3893 9.8229C31.3654 9.38969 30.265 9.16647 29.1532 9.16647C28.0414 9.16647 26.941 9.38969 25.9171 9.8229C24.8932 10.2561 23.9667 10.8905 23.1926 11.6884H23.1916ZM10.5948 21.6636C8.60657 19.3536 8.69637 15.8134 10.8515 13.6125C11.3696 13.0761 11.9903 12.6494 12.6768 12.3581C13.3633 12.0667 14.1015 11.9165 14.8472 11.9165C15.593 11.9165 16.3311 12.0667 17.0176 12.3581C17.7041 12.6494 18.3249 13.0761 18.843 13.6125L19.4929 14.2615C19.5557 14.3233 19.6187 14.3851 19.6817 14.4467L22 16.6796L24.1175 14.641L24.6858 14.0855L25.157 13.6125C25.6751 13.0759 26.2959 12.6491 26.9825 12.3577C27.6691 12.0662 28.4073 11.916 29.1532 11.916C29.8991 11.916 30.6373 12.0662 31.3239 12.3577C32.0104 12.6491 32.6313 13.0759 33.1494 13.6125C35.3604 15.8711 35.3971 19.5405 33.2438 21.8441L22 32.8231L10.7561 21.8432L10.5948 21.6636Z"
        fill="#11181C" />
</svg>