<svg width="25" height="25" viewBox="0 0 25 25" fill="none" xmlns="http://www.w3.org/2000/svg">
    <g clip-path="url(#clip0_15_3986)">
        <path
            d="M0 8.49495C0 10.7159 0.882269 12.8459 2.45272 14.4163C4.02317 15.9868 6.15315 16.8691 8.3741 16.8691C10.5951 16.8691 12.725 15.9868 14.2955 14.4163C15.8659 12.8459 16.7482 10.7159 16.7482 8.49495C16.7482 6.274 15.8659 4.14402 14.2955 2.57357C12.725 1.00312 10.5951 0.12085 8.3741 0.12085C6.15315 0.12085 4.02317 1.00312 2.45272 2.57357C0.882269 4.14402 0 6.274 0 8.49495H0Z"
            fill="#D6E4FD" />
        <path
            d="M10.1946 20.51C4.55114 20.51 0 15.9588 0 10.3154C0 4.67199 4.55114 0.12085 10.1946 0.12085C15.838 0.12085 20.3891 4.67199 20.3891 10.3154C20.3891 15.9588 15.838 20.51 10.1946 20.51ZM10.1946 1.94131C5.5706 1.94131 1.82046 5.69145 1.82046 10.3154C1.82046 14.9394 5.5706 18.6895 10.1946 18.6895C14.8185 18.6895 18.5687 14.9394 18.5687 10.3154C18.5687 5.69145 14.8185 1.94131 10.1946 1.94131Z"
            fill="#0036A8" />
        <path
            d="M24.7217 24.5879C24.3576 24.9519 23.775 24.9519 23.4473 24.5879L18.3137 19.4542C17.9496 19.0901 17.986 18.5075 18.3501 18.1798C18.7142 17.8522 19.2603 17.8522 19.6244 18.1798L24.7581 23.3135C25.0858 23.6412 25.0858 24.2238 24.7217 24.5879Z"
            fill="#EF889A" />
    </g>
    <defs>
        <clipPath id="clip0_15_3986">
            <rect width="25" height="25" fill="white" />
        </clipPath>
    </defs>
</svg>